<mxfile host="app.diagrams.net" modified="2023-04-26T06:13:19.316Z" agent="Mozilla/5.0 (Windows NT 10.0; Win64; x64) AppleWebKit/537.36 (KHTML, like Gecko) Chrome/109.0.0.0 Safari/537.36" version="21.1.6" etag="-d0OznzEBuCtH_bKwUp0" type="github">
  <diagram name="Page-1" id="CXV8uM8Q669HFNuF4sEJ">
    <mxGraphModel>
      <root>
        <mxCell id="0" />
        <mxCell id="1" parent="0" />
      </root>
    </mxGraphModel>
  </diagram>
</mxfile>
